<?xml version="1.0" standalone="no"?>
<!DOCTYPE svg PUBLIC "-//W3C//DTD SVG 20010904//EN"
 "http://www.w3.org/TR/2001/REC-SVG-20010904/DTD/svg10.dtd">
<svg version="1.0" xmlns="http://www.w3.org/2000/svg"
 width="1431.000000pt" height="1136.000000pt" viewBox="0 0 1431.000000 1136.000000"
 preserveAspectRatio="xMidYMid meet">

<g transform="translate(0.000000,1136.000000) scale(0.100000,-0.100000)"
fill="#fff" stroke="none">
<path d="M1633 11349 c-543 -64 -1031 -364 -1329 -820 -142 -216 -234 -448
-280 -709 -18 -101 -19 -244 -19 -4140 0 -3896 1 -4039 19 -4140 48 -269 140
-500 291 -725 139 -208 292 -360 500 -500 225 -151 456 -243 725 -291 102 -18
278 -19 5615 -19 5296 0 5514 1 5614 18 767 136 1343 692 1509 1456 l27 126 0
4075 0 4075 -27 126 c-116 536 -431 971 -898 1238 -174 100 -368 171 -600 218
-80 16 -416 17 -5580 19 -3022 1 -5527 -2 -5567 -7z m777 -2999 l0 -1780 62
45 c199 147 489 296 758 390 132 46 356 100 515 126 188 30 567 37 765 15 671
-77 1263 -358 1744 -826 358 -350 595 -727 751 -1195 82 -248 128 -481 143
-730 l7 -120 8 115 c39 596 265 1180 639 1652 104 132 344 372 476 476 413
328 900 537 1437 618 140 21 523 30 681 15 487 -46 950 -208 1354 -475 530
-350 928 -847 1153 -1441 40 -107 105 -324 122 -413 l7 -32 -614 0 -614 0 -34
86 c-18 47 -62 135 -96 196 -517 906 -1682 1180 -2545 599 -201 -135 -359
-295 -492 -496 -515 -783 -334 -1835 414 -2400 242 -183 515 -296 821 -341 88
-13 156 -15 308 -11 212 6 311 22 489 79 491 157 898 530 1097 1005 l39 93
612 0 c337 0 613 -3 613 -7 0 -5 -12 -53 -25 -108 -290 -1149 -1223 -2016
-2385 -2214 -354 -61 -763 -52 -1120 24 -473 100 -938 332 -1316 658 -574 495
-949 1222 -1013 1968 -6 68 -13 140 -15 159 -1 19 -4 4 -4 -35 -4 -162 -38
-376 -92 -590 -248 -975 -987 -1762 -1955 -2080 -441 -145 -944 -182 -1410
-104 -436 73 -882 258 -1228 510 l-67 49 0 -295 0 -295 -587 2 -588 3 0 1180
0 1180 639 0 c558 0 640 -2 647 -15 4 -8 27 -59 50 -113 190 -446 590 -811
1058 -967 217 -72 295 -84 561 -85 206 0 249 3 348 23 985 200 1605 1137 1402
2120 -71 342 -259 679 -512 918 -430 405 -1012 571 -1593 453 -569 -115 -1054
-517 -1281 -1061 l-37 -88 -643 0 -644 0 0 2670 0 2670 595 0 595 0 0 -1780z"/>
</g>
</svg>
